<svg width="120" height="21" viewBox="0 0 120 21" fill="none" xmlns="http://www.w3.org/2000/svg">
<g clip-path="url(#clip0_904_6004)">
<path d="M27.3373 3.16117C27.3342 3.77214 27.1539 4.36847 26.8191 4.87492C26.4843 5.38137 26.0101 5.77524 25.4563 6.00683C24.9025 6.23844 24.2939 6.29734 23.7073 6.17617C23.1207 6.05506 22.5825 5.75922 22.1604 5.32605C21.7383 4.89289 21.4514 4.34181 21.3358 3.74233C21.2201 3.14286 21.2811 2.52186 21.5108 1.95769C21.7406 1.39352 22.1288 0.911468 22.6267 0.572351C23.1245 0.233235 23.7095 0.0522545 24.308 0.0522461C24.7069 0.0533107 25.1016 0.13457 25.4697 0.291384C25.8378 0.448198 26.172 0.677499 26.4534 0.966189C26.7347 1.25488 26.9575 1.5973 27.1092 1.97392C27.2609 2.35054 27.3384 2.75396 27.3373 3.16117Z" fill="#CEE800"/>
<path d="M35.1701 3.16117C35.1685 3.77306 34.9896 4.37079 34.6559 4.8791C34.3223 5.38742 33.8488 5.78359 33.295 6.01774C32.7413 6.2519 32.1321 6.31357 31.5441 6.19494C30.9561 6.07636 30.4156 5.7828 29.9907 5.35125C29.5658 4.9197 29.2754 4.36946 29.1562 3.7698C29.0369 3.17013 29.0942 2.54786 29.3206 1.98133C29.5471 1.41479 29.9327 0.92933 30.4289 0.586058C30.925 0.242786 31.5096 0.0570537 32.1089 0.0522461C32.9152 0.0543953 33.6877 0.382889 34.2571 0.965694C34.8265 1.54849 35.1462 2.33803 35.1462 3.16117" fill="#CEE800"/>
<path d="M6.14726 13.719L9.98761 8.9541C10.2659 8.61321 10.0989 8.22356 9.68548 8.22356H6.8072C6.65344 8.22199 6.50146 8.25711 6.36344 8.32621C6.22541 8.39524 6.10505 8.49632 6.01207 8.6213L3.37233 12.0549V8.8567C3.38427 8.77071 3.37646 8.68309 3.34951 8.60072C3.32256 8.51835 3.27723 8.44346 3.21708 8.38209C3.15692 8.32066 3.0836 8.27437 3.00292 8.24686C2.92223 8.21934 2.83638 8.21137 2.75215 8.22356H0.653079C0.568851 8.21137 0.482997 8.21934 0.402309 8.24686C0.32162 8.27437 0.248307 8.32066 0.188155 8.38209C0.128002 8.44346 0.0826608 8.51835 0.0557154 8.60072C0.0287699 8.68309 0.0209568 8.77071 0.0328945 8.8567V19.8962C0.0209568 19.9822 0.0287699 20.0699 0.0557154 20.1522C0.0826608 20.2346 0.128002 20.3094 0.188155 20.3709C0.248307 20.4323 0.32162 20.4786 0.402309 20.506C0.482997 20.5335 0.568851 20.5416 0.653079 20.5294H2.776C2.86023 20.5416 2.94608 20.5335 3.02677 20.506C3.10746 20.4786 3.18078 20.4323 3.24093 20.3709C3.30108 20.3094 3.34642 20.2346 3.37337 20.1522C3.40031 20.0699 3.40812 19.9822 3.39618 19.8962V15.6184L6.94233 20.1073C7.01906 20.2299 7.12322 20.3321 7.24629 20.4055C7.36931 20.4789 7.50769 20.5214 7.64998 20.5294H10.6396C10.72 20.5299 10.7988 20.5069 10.8669 20.4632C10.9349 20.4195 10.9892 20.3568 11.0235 20.2826C11.0578 20.2083 11.0705 20.1256 11.0603 20.0442C11.05 19.9628 11.0171 19.8861 10.9656 19.8232L6.14726 13.719Z" fill="#FEFEFE"/>
<path d="M65.3435 8.22546H56.367C56.2313 8.22764 56.1019 8.28412 56.0067 8.38284C55.9115 8.48157 55.8582 8.61457 55.8582 8.75312V11.1233C55.8582 11.2619 55.9115 11.3949 56.0067 11.4936C56.1019 11.5923 56.2313 11.6488 56.367 11.651H59.1975V20.0037C59.1975 20.1436 59.2518 20.2778 59.3488 20.3767C59.4457 20.4757 59.5776 20.5313 59.7147 20.5313H62.0361C62.1041 20.5313 62.1715 20.5176 62.2341 20.4911C62.2968 20.4646 62.3535 20.4257 62.4014 20.3767C62.4493 20.3277 62.4877 20.2696 62.5137 20.2056C62.5397 20.1416 62.5527 20.073 62.5527 20.0037V11.651H65.3435C65.4806 11.651 65.6124 11.5954 65.7094 11.4965C65.8063 11.3975 65.8607 11.2633 65.8607 11.1233V8.75312C65.8607 8.61318 65.8063 8.47897 65.7094 8.38001C65.6124 8.2811 65.4806 8.22546 65.3435 8.22546Z" fill="#FEFEFE"/>
<path d="M41.3955 13.7766C43.5265 11.6904 42.1112 8.19189 38.8354 8.19189H33.214C33.0782 8.19189 32.948 8.24633 32.8513 8.34354C32.7546 8.44076 32.6992 8.57285 32.6971 8.7114V20.0025C32.6971 20.1425 32.7516 20.2767 32.8485 20.3756C32.9454 20.4745 33.0769 20.5301 33.214 20.5301H39.384C43.6616 20.5301 44.8066 15.4812 41.3955 13.809V13.7766ZM35.9491 10.968H38.1277C38.2576 10.9557 38.3886 10.9713 38.5124 11.0137C38.636 11.056 38.7498 11.1243 38.8462 11.214C38.9426 11.3038 39.0196 11.4131 39.0723 11.5349C39.1249 11.6568 39.1522 11.7886 39.1522 11.9217C39.1522 12.055 39.1249 12.1867 39.0723 12.3086C39.0196 12.4305 38.9426 12.5397 38.8462 12.6295C38.7498 12.7193 38.636 12.7875 38.5124 12.8299C38.3886 12.8722 38.2576 12.8878 38.1277 12.8756H35.9491V10.968ZM38.8354 17.7784H35.9491V15.4812H38.8354C40.6005 15.4812 40.7118 17.7784 38.8354 17.7784Z" fill="#FEFEFE"/>
<path d="M30.0491 8.74497C30.0471 8.60648 29.9917 8.47433 29.895 8.37717C29.7982 8.27995 29.668 8.22546 29.5323 8.22546H26.8766C26.741 8.22546 26.6107 8.27995 26.514 8.37717C26.4173 8.47433 26.3619 8.60648 26.3599 8.74497V20.0037C26.3599 20.073 26.3732 20.1416 26.3992 20.2056C26.4251 20.2696 26.4632 20.3277 26.5112 20.3767C26.5592 20.4257 26.6162 20.4646 26.6789 20.4911C26.7416 20.5176 26.8088 20.5313 26.8766 20.5313H29.5323C29.6694 20.5313 29.8008 20.4757 29.8977 20.3767C29.9947 20.2778 30.0491 20.1436 30.0491 20.0037V8.74497Z" fill="#FEFEFE"/>
<path d="M83.9957 8.22546H79.0982C78.961 8.22546 78.8298 8.2811 78.7329 8.38001C78.6359 8.47897 78.5815 8.61318 78.5815 8.75312V20.0037C78.5815 20.1436 78.6359 20.2778 78.7329 20.3767C78.8298 20.4757 78.961 20.5313 79.0982 20.5313H81.4036C81.5408 20.5313 81.6726 20.4757 81.7695 20.3767C81.8665 20.2778 81.9209 20.1436 81.9209 20.0037V16.6755H83.845C86.54 16.6755 88.6154 15.2226 88.6154 12.4708C88.6154 9.88953 86.5163 8.22546 83.9957 8.22546ZM83.7415 13.9076H81.9368V11.0666H83.7019C84.8866 11.0666 85.2921 11.6266 85.2921 12.4465C85.2921 13.2663 84.9741 13.8832 83.7019 13.8832" fill="#FEFEFE"/>
<path d="M77.4838 19.913L73.3813 8.68677C73.334 8.54303 73.2412 8.41944 73.1171 8.33562C72.9935 8.25186 72.8458 8.21258 72.6974 8.22411H69.5969C69.4491 8.21155 69.3019 8.25054 69.1796 8.3346C69.0566 8.41866 68.9656 8.54285 68.9206 8.68677L64.8099 19.913C64.7756 19.9804 64.7591 20.0561 64.7632 20.1321C64.7667 20.2082 64.791 20.2817 64.8324 20.345C64.8743 20.4082 64.9317 20.4588 64.9991 20.4913C65.0664 20.5239 65.1415 20.5372 65.2154 20.5299H67.8318C67.9429 20.5249 68.0499 20.4869 68.1403 20.4206C68.2308 20.3543 68.3005 20.2625 68.3401 20.1565L68.8733 18.5331H73.4529L73.9855 20.1565C74.0257 20.2625 74.0954 20.3543 74.1853 20.4206C74.2757 20.4869 74.3833 20.5249 74.4944 20.5299H77.1102C77.1847 20.5372 77.2592 20.5239 77.3271 20.4913C77.3945 20.4588 77.4519 20.4082 77.4932 20.345C77.5352 20.2817 77.5589 20.2082 77.563 20.1321C77.5671 20.0561 77.5506 19.9804 77.5157 19.913H77.4838ZM69.8511 15.692L71.1788 11.6333L72.5064 15.692H69.8511Z" fill="#FEFEFE"/>
<path d="M23.7754 20.0037V8.75312C23.7754 8.61318 23.7209 8.47897 23.624 8.38001C23.5271 8.2811 23.3956 8.22546 23.2585 8.22546H20.6983C20.6056 8.228 20.5148 8.2528 20.4333 8.29794C20.3517 8.34308 20.2818 8.40728 20.2292 8.48525L15.4586 15.0846V8.75312C15.4586 8.61318 15.4041 8.47897 15.3072 8.38001C15.2103 8.2811 15.0788 8.22546 14.9418 8.22546H12.636C12.5003 8.22764 12.3709 8.28412 12.2756 8.38284C12.1805 8.48157 12.1271 8.61457 12.1271 8.75312V20.0037C12.1271 20.1422 12.1805 20.2752 12.2756 20.3739C12.3709 20.4726 12.5003 20.5292 12.636 20.5313H15.2042C15.2976 20.5279 15.3888 20.5018 15.4704 20.4552C15.552 20.4087 15.6216 20.3429 15.6733 20.2634L20.4439 13.6722V20.0037C20.4439 20.1436 20.4983 20.2778 20.5952 20.3767C20.6922 20.4757 20.8236 20.5313 20.9607 20.5313H23.2903C23.3582 20.5313 23.4254 20.5176 23.4881 20.4911C23.5508 20.4646 23.6078 20.4257 23.6558 20.3767C23.7038 20.3277 23.7418 20.2696 23.7678 20.2056C23.7938 20.1416 23.8072 20.073 23.8072 20.0037H23.7754Z" fill="#FEFEFE"/>
<path d="M55.0867 18.2012L53.7032 16.7158C53.6555 16.6549 53.595 16.6058 53.5262 16.5721C53.4573 16.5384 53.382 16.5209 53.3057 16.5209C53.1751 16.5228 53.0502 16.575 52.9558 16.667C52.217 17.3404 51.2587 17.708 50.2684 17.6979C49.4368 17.6559 48.6529 17.289 48.079 16.6733C47.505 16.0576 47.1849 15.2401 47.1849 14.3901C47.1849 13.5402 47.505 12.7227 48.079 12.107C48.6529 11.4913 49.4368 11.1244 50.2684 11.0823C51.264 11.0834 52.223 11.4657 52.9558 12.1538C53.0502 12.2459 53.1751 12.2981 53.3057 12.2999C53.3817 12.2983 53.4565 12.2801 53.5251 12.2465C53.5937 12.2129 53.6544 12.1647 53.7032 12.1051L55.0867 10.6115C55.1768 10.5152 55.228 10.3876 55.2298 10.2544C55.2282 10.1108 55.171 9.97362 55.0708 9.87285C54.4477 9.22945 53.7043 8.72044 52.8848 8.37606C52.0653 8.03161 51.1863 7.85884 50.3002 7.86789C48.5963 7.86789 46.9622 8.5589 45.7574 9.78891C44.5526 11.0189 43.8757 12.6872 43.8757 14.4267C43.8757 16.1662 44.5526 17.8344 45.7574 19.0644C46.9622 20.2944 48.5963 20.9854 50.3002 20.9854C51.1866 20.9964 52.0661 20.8244 52.8858 20.4799C53.7056 20.1354 54.4488 19.6254 55.0708 18.9805C55.1184 18.9328 55.1562 18.876 55.182 18.8133C55.2078 18.7506 55.2211 18.6832 55.2211 18.6152C55.2211 18.5472 55.2078 18.4798 55.182 18.4171C55.1562 18.3544 55.1184 18.2975 55.0708 18.2499L55.0867 18.2012Z" fill="#FEFEFE"/>
<path d="M96.3129 14.8655C96.31 15.4764 96.1297 16.0728 95.7951 16.5792C95.4599 17.0857 94.9858 17.4796 94.4319 17.7112C93.8781 17.9427 93.2698 18.0017 92.6834 17.8805C92.0964 17.7593 91.5584 17.4635 91.1364 17.0304C90.7143 16.5972 90.427 16.0461 90.3118 15.4467C90.1959 14.8472 90.2568 14.2262 90.4867 13.662C90.7161 13.0978 91.1045 12.6158 91.6022 12.2766C92.1005 11.9376 92.6852 11.7566 93.284 11.7566C93.6824 11.7576 94.0773 11.8389 94.4455 11.9957C94.8138 12.1525 95.1478 12.3818 95.4292 12.6705C95.7106 12.9592 95.9334 13.3016 96.0848 13.6782C96.2367 14.0548 96.3141 14.4583 96.3129 14.8655Z" fill="#CEE800"/>
<path d="M107.373 8.14343H98.2773C98.1395 8.14554 98.0077 8.20293 97.9113 8.30323C97.8144 8.40346 97.76 8.53851 97.76 8.67917V10.9845C97.76 11.1244 97.8144 11.2586 97.9113 11.3576C98.0083 11.4565 98.1401 11.5121 98.2773 11.5121H101.147V20.0758C101.147 20.2166 101.202 20.3516 101.298 20.4518C101.395 20.5521 101.526 20.6095 101.664 20.6116H104.05C104.188 20.6095 104.32 20.5524 104.419 20.4523C104.516 20.3523 104.572 20.2173 104.574 20.0758V11.5121H107.405C107.542 11.5121 107.673 11.4565 107.77 11.3576C107.867 11.2586 107.922 11.1244 107.922 10.9845V8.67917C107.922 8.53851 107.867 8.40346 107.771 8.30323C107.674 8.20293 107.543 8.14554 107.405 8.14343" fill="#FEFEFE"/>
<path d="M115.126 12.2852H113.21V10.8972H117.925C118.062 10.8951 118.194 10.8377 118.291 10.7375C118.387 10.6372 118.441 10.5021 118.441 10.3615V8.65684C118.442 8.58684 118.43 8.51738 118.404 8.45245C118.379 8.38746 118.341 8.32832 118.293 8.27847C118.244 8.22863 118.187 8.18904 118.124 8.16201C118.061 8.13497 117.993 8.12109 117.925 8.12109H110.323C110.255 8.12109 110.187 8.13497 110.123 8.16201C110.06 8.18904 110.003 8.22863 109.955 8.27847C109.907 8.32832 109.869 8.38746 109.843 8.45245C109.818 8.51738 109.805 8.58684 109.807 8.65684V20.0778C109.807 20.2185 109.86 20.3536 109.957 20.4538C110.054 20.5541 110.186 20.6114 110.323 20.6136H115.301C117.853 20.6136 119.992 19.1768 119.992 16.5549C119.96 13.7788 117.869 12.2852 115.126 12.2852ZM114.967 17.7238H113.21V14.8666H115.038C116.294 14.8666 116.628 15.6052 116.628 16.3195C116.589 17.1556 116.175 17.7238 114.967 17.7238Z" fill="#FEFEFE"/>
</g>
<defs>
<clipPath id="clip0_904_6004">
<rect width="120" height="21" fill="white"/>
</clipPath>
</defs>
</svg>
